Motion_kv10_l
version=1
nRows=6
nColumns=43
inDegrees=yes
endheader
time	pelvis_tilt	pelvis_list	pelvis_rotation	pelvis_tx	pelvis_ty	pelvis_tz	hip_flexion_r	hip_adduction_r	hip_rotation_r	knee_angle_r	ankle_angle_r	subtalar_angle_r	mtp_angle_r	hip_flexion_l	hip_adduction_l	hip_rotation_l	knee_angle_l	ankle_angle_l	subtalar_angle_l	mtp_angle_l	lumbar_extension	lumbar_bending	lumbar_rotation	neck_flexion	neck_lateral_bending	neck_rotation	arm_flex_r	arm_add_r	arm_rot_r	elbow_flex_r	pro_sup_r	wrist_flex_r	wrist_dev_r	hand_finger_flex_r	arm_flex_l	arm_add_l	arm_rot_l	elbow_flex_l	pro_sup_l	wrist_flex_l	wrist_dev_l	hand_finger_flex_l
      0.00250000	      0.89018945	    -14.75485197	     87.73882086	      0.00859405	      0.89702967	      1.46951403	    -11.04206082	     -5.71311943	     -5.57184455	    -11.14174270	     -1.88754135	     19.02954426	     43.95556344	    -11.45983961	     -7.92817928	    -15.70795317	    -12.40678912	     -7.54916307	     31.90097604	     53.70442418	    -17.81031697	     -0.38305429	      1.18657985	    -17.12259990	      1.22318850	     -5.93470237	      6.92390389	    -36.30460304	     -2.72484769	    112.25808194	    154.85796922	     -8.48757394	    -13.10513653	     68.71710771	      2.98680624	    -38.28144436	     -9.29256800	    110.63450700	    155.86400809	    -21.50438562	     -8.76207171	     71.26780106
      0.00500000	      0.88993342	    -14.75194139	     87.74012932	      0.00871278	      0.89737394	      1.46992267	    -11.01750546	     -5.70371103	     -5.57263666	    -11.12944711	     -1.88829176	     19.02855928	     43.95385043	    -11.42858513	     -7.93434097	    -15.70557560	    -12.39841185	     -7.55295871	     31.90208448	     53.70286962	    -17.84553071	     -0.39898088	      1.18807699	    -17.11117142	      1.22749507	     -5.92207531	      6.94214761	    -36.30071474	     -2.72695216	    112.24096967	    154.85806701	     -8.48603896	    -13.10564873	     68.71831635	      3.00554417	    -38.27910728	     -9.28726480	    110.62203297	    155.86681056	    -21.50055968	     -8.75817772	     71.26617543
      0.00750000	      0.88570089	    -14.76829769	     87.74461556	      0.00884638	      0.89806965	      1.47111610	    -10.85851030	     -5.69407116	     -5.52620991	    -11.20672183	     -1.97937050	     19.02223406	     43.92914796	    -11.22615002	     -7.97116090	    -15.64057659	    -12.55041338	     -7.67093987	     31.89627752	     53.68004080	    -17.94019451	     -0.41434556	      1.18808586	    -16.80296438	      1.28577577	     -5.78286678	      7.26506002	    -36.20888821	     -2.62529270	    112.04938775	    154.85801887	     -8.46254355	    -13.13324322	     68.72460718	      3.37572626	    -38.26908951	     -9.12429441	    110.46274880	    155.89569305	    -21.42783018	     -8.73222456	     71.24372431
      0.01000000	      0.89106050	    -14.76430276	     87.75063977	      0.00893428	      0.89843116	      1.47156618	    -10.82598743	     -5.68615484	     -5.52311400	    -11.20370717	     -1.98502108	     19.02118320	     43.92727295	    -11.19002721	     -7.97453541	    -15.63781151	    -12.54709881	     -7.67558510	     31.89285549	     53.67831650	    -17.98050198	     -0.42962757	      1.18927236	    -16.79985866	      1.28531449	     -5.77506438	      7.27780581	    -36.23105314	     -2.63443012	    112.02950153	    154.85927294	     -8.46087240	    -13.13309270	     68.72698821	      3.39548392	    -38.28820380	     -9.13175963	    110.44459538	    155.89709070	    -21.42299035	     -8.72752149	     71.24351795
      0.01250000	      0.89975385	    -14.79037600	     87.75903454	      0.00905456	      0.89917421	      1.47296380	    -10.60070568	     -5.67247513	     -5.45111587	    -11.36328207	     -2.11182055	     19.00936408	     43.90203730	    -10.94026644	     -8.02159966	    -15.55902663	    -12.74940794	     -7.79749696	     31.83848952	     53.65450931	    -18.09338659	     -0.43539826	      1.19787305	    -16.50743411	      1.29915428	     -5.68861209	      7.63835446	    -36.22891334	     -2.48766543	    111.87966755	    154.85477827	     -8.44110346	    -13.17070182	     68.73527434	      3.80686895	    -38.34347445	     -8.93331333	    110.29509815	    155.90444554	    -21.33591806	     -8.71827881	     71.22706059
      0.01500000	      0.90158747	    -14.78570114	     87.76142859	      0.00915188	      0.89951484	      1.47341132	    -10.56968920	     -5.66464499	     -5.44749143	    -11.36263873	     -2.11533202	     19.00717018	     43.90062246	    -10.90520527	     -8.02776714	    -15.55428660	    -12.74758612	     -7.79985124	     31.83262303	     53.65309461	    -18.12629126	     -0.44653878	      1.20065088	    -16.49904978	      1.29718586	     -5.68434169	      7.64674323	    -36.25174552	     -2.49826063	    111.85053961	    154.85574403	     -8.43872861	    -13.16822580	     68.73775462	      3.82373878	    -38.36190972	     -8.94284069	    110.26967878	    155.90419022	    -21.33034451	     -8.71252426	     71.22716669
